M48
; DRILL file {KiCad 8.0.4} date 2024-11-21T12:13:13-0500
; FORMAT={-:-/ absolute / inch / decimal}
; #@! TF.CreationDate,2024-11-21T12:13:13-05:00
; #@! TF.GenerationSoftware,Kicad,Pcbnew,8.0.4
; #@! TF.FileFunction,Plated,1,2,PTH
FMAT,2
INCH
; #@! TA.AperFunction,Plated,PTH,ViaDrill
T1C0.0157
; #@! TA.AperFunction,Plated,PTH,ComponentDrill
T2C0.0315
; #@! TA.AperFunction,Plated,PTH,ComponentDrill
T3C0.0335
; #@! TA.AperFunction,Plated,PTH,ComponentDrill
T4C0.0394
%
G90
G05
T1
X4.9898Y-3.4354
X5.1181Y-3.4252
T2
X4.7835Y-4.0945
X4.7835Y-4.4094
X4.8898Y-2.8921
X4.8898Y-2.9921
X4.8898Y-3.0921
X4.8898Y-3.1921
X4.8898Y-3.2921
X4.8898Y-3.3921
X4.8898Y-3.4921
X4.8898Y-3.5921
X5.1835Y-4.0945
X5.1835Y-4.4094
X5.1898Y-2.8921
X5.1898Y-2.9921
X5.1898Y-3.0921
X5.1898Y-3.1921
X5.1898Y-3.2921
X5.1898Y-3.3921
X5.1898Y-3.4921
X5.1898Y-3.5921
T3
X4.94Y-2.7
X5.04Y-2.7
X5.14Y-2.7
X5.24Y-2.7
X5.3Y-4.6
X5.34Y-2.7
X5.4Y-4.6
X5.44Y-2.7
X5.5Y-4.6
X5.54Y-2.7
X5.6Y-4.6
X5.64Y-2.7
X5.7Y-4.6
X5.74Y-2.7
X5.8Y-4.6
X5.84Y-2.7
X5.9Y-4.6
X6.0Y-2.7
X6.0Y-4.6
X6.1Y-2.7
X6.2Y-2.7
X6.2Y-4.6
X6.3Y-2.7
X6.3Y-4.6
X6.4Y-2.7
X6.4Y-4.6
X6.5Y-2.7
X6.5Y-4.6
X6.6Y-2.7
X6.6Y-4.6
X6.7Y-2.7
X6.7Y-4.6
T4
X4.6614Y-2.8789
X4.6614Y-2.9789
X4.6614Y-3.0789
X4.6614Y-3.1789
X4.6614Y-3.2789
X4.6614Y-3.3789
X4.6614Y-3.4789
X4.6614Y-3.5789
X4.6614Y-4.1004
X4.6614Y-4.2004
X4.6614Y-4.3004
X4.6614Y-4.4004
M30
